<svg width="206" height="46" viewBox="0 0 206 46" fill="none" xmlns="http://www.w3.org/2000/svg">
<g filter="url(#filter0_d_102_9)">
<mask id="path-1-outside-1_102_9" maskUnits="userSpaceOnUse" x="2" y="0" width="202" height="42" fill="black">
<rect fill="white" x="2" width="202" height="42"/>
<path d="M12.0267 31.3553H27.7341C28.516 31.3553 29.094 31.3892 29.468 31.4569C29.876 31.4907 30.335 31.643 30.8449 31.9137C31.7629 32.3875 32.2219 33.7073 32.2219 35.8731C32.2219 38.242 31.5929 39.6294 30.335 40.0355C29.757 40.2386 28.873 40.3401 27.6831 40.3401H7.48783C5.10792 40.3401 3.71397 39.6971 3.30599 38.4112C3.102 37.8697 3 37.0068 3 35.8223V7.59898C3 5.8731 3.32299 4.70558 3.96896 4.09645C4.61494 3.45347 5.83889 3.13198 7.64082 3.13198H27.7341C28.516 3.13198 29.094 3.16582 29.468 3.2335C29.876 3.26734 30.335 3.41963 30.8449 3.69035C31.7629 4.16413 32.2219 5.48393 32.2219 7.64975C32.2219 10.0186 31.5929 11.4061 30.335 11.8122C29.757 12.0152 28.873 12.1168 27.6831 12.1168H12.0267V17.2437H22.1243C22.9062 17.2437 23.4842 17.2775 23.8582 17.3452C24.2662 17.379 24.7252 17.5313 25.2352 17.802C26.1531 18.2758 26.6121 19.5956 26.6121 21.7614C26.6121 24.1303 25.9661 25.5178 24.6742 25.9239C24.0962 26.1269 23.2122 26.2284 22.0223 26.2284H12.0267V31.3553Z"/>
<path d="M59.5632 14.198C61.3311 15.247 62.2151 16.3638 62.2151 17.5482C62.2151 18.225 61.8751 19.1557 61.1952 20.3401L50.6386 38.3604C50.2986 38.9357 49.7546 39.4602 49.0066 39.934C48.2586 40.3739 47.5107 40.5939 46.7627 40.5939C46.0487 40.5939 45.3518 40.4247 44.6718 40.0863C44.0258 39.714 43.5668 39.3418 43.2948 38.9695L42.8359 38.4112L32.2283 20.3401C31.5483 19.2234 31.2083 18.3096 31.2083 17.599C31.2083 16.3807 32.0923 15.247 33.8602 14.198C35.1521 13.4535 36.1721 13.0812 36.9201 13.0812C37.668 13.0812 38.246 13.3181 38.654 13.7919C39.096 14.2318 39.555 14.9086 40.031 15.8223L46.7117 28.6142L53.3925 15.8223C53.7664 15.1794 54.0384 14.7225 54.2084 14.4518C54.4124 14.1472 54.7184 13.8596 55.1264 13.5888C55.5344 13.2843 56.0783 13.132 56.7583 13.132C57.4383 13.132 58.3733 13.4873 59.5632 14.198Z"/>
<path d="M89.3676 23.7919C89.3676 25.8562 88.8406 27.3959 87.7866 28.4112C86.7667 29.3926 85.6277 29.8832 84.3698 29.8832H72.2832C72.2832 30.8308 72.8442 31.6261 73.9662 32.269C75.0881 32.912 76.2101 33.2335 77.332 33.2335C79.304 33.2335 80.8509 33.0305 81.9729 32.6244L82.5339 32.4213C83.3498 32.0491 84.0298 31.8629 84.5738 31.8629C85.6617 31.8629 86.5967 32.6244 87.3787 34.1472C87.8206 35.0609 88.0416 35.8393 88.0416 36.4822C88.0416 39.4941 84.4208 41 77.179 41C74.6631 41 72.4192 40.577 70.4473 39.731C68.5094 38.8511 66.9964 37.7005 65.9085 36.2792C63.7666 33.5381 62.6956 30.4755 62.6956 27.0914C62.6956 22.8274 64.0726 19.4264 66.8264 16.8883C69.6143 14.3164 73.0822 13.0305 77.23 13.0305C81.9559 13.0305 85.4237 14.6887 87.6337 18.0051C88.7896 19.7648 89.3676 21.6937 89.3676 23.7919ZM78.607 25.264C79.899 25.264 80.5449 24.7225 80.5449 23.6396C80.5449 22.8613 80.2389 22.2352 79.627 21.7614C79.049 21.2876 78.199 21.0508 77.0771 21.0508C75.9891 21.0508 74.9011 21.5076 73.8132 22.4213C72.7252 23.3012 72.1812 24.2487 72.1812 25.264H78.607Z"/>
<path d="M107.637 13.5888C111.037 13.5888 113.859 14.8917 116.103 17.4975C118.381 20.0694 119.52 23.2166 119.52 26.9391V35.8731C119.52 36.6514 119.486 37.2437 119.418 37.6497C119.384 38.022 119.248 38.445 119.01 38.9188C118.534 39.8325 117.208 40.2893 115.032 40.2893C112.618 40.2893 111.224 39.6633 110.85 38.4112C110.646 37.8359 110.544 36.9729 110.544 35.8223V26.8883C110.544 25.5008 110.136 24.4179 109.32 23.6396C108.538 22.8613 107.467 22.4721 106.107 22.4721C104.781 22.4721 103.693 22.8782 102.843 23.6904C102.027 24.5025 101.619 25.5685 101.619 26.8883V35.8731C101.619 36.6514 101.585 37.2437 101.517 37.6497C101.483 38.022 101.33 38.445 101.058 38.9188C100.617 39.8325 99.3076 40.2893 97.1316 40.2893C94.9897 40.2893 93.6808 39.8325 93.2048 38.9188C92.9668 38.4112 92.8138 37.9712 92.7458 37.599C92.7118 37.1929 92.6948 36.6007 92.6948 35.8223V17.8528C92.6948 17.1083 92.7118 16.5499 92.7458 16.1777C92.8138 15.7716 92.9838 15.3316 93.2558 14.8579C93.7318 14.0118 95.0407 13.5888 97.1826 13.5888C99.2566 13.5888 100.532 13.978 101.007 14.7563C101.347 15.3316 101.517 16.0254 101.517 16.8376C101.653 16.6007 101.959 16.2623 102.435 15.8223C102.911 15.3824 103.37 15.0271 103.812 14.7563C104.968 13.978 106.243 13.5888 107.637 13.5888Z"/>
<path d="M138.73 22.5736L135.415 22.3706V29.3756C135.415 30.2893 135.551 30.9492 135.823 31.3553C136.129 31.7614 136.673 31.9645 137.455 31.9645C138.271 31.9645 138.883 31.9983 139.291 32.066C139.733 32.0998 140.192 32.2521 140.668 32.5228C141.45 32.9628 141.841 34.0964 141.841 35.9239C141.841 38.0558 141.365 39.3587 140.413 39.8325C139.903 40.0694 139.444 40.2217 139.036 40.2893C138.662 40.3232 138.101 40.3401 137.353 40.3401C133.817 40.3401 131.131 39.5448 129.295 37.9543C127.459 36.3638 126.541 33.6734 126.541 29.8832V22.3706C125.895 22.4721 125.198 22.5228 124.45 22.5228C123.702 22.5228 123.073 22.2352 122.563 21.6599C122.087 21.0846 121.849 20.1032 121.849 18.7157C121.849 17.3283 121.934 16.3299 122.104 15.7208C122.274 15.0778 122.512 14.621 122.818 14.3503C123.362 13.9103 124.042 13.6904 124.858 13.6904L126.541 13.8934V8.66498C126.541 7.88663 126.558 7.31134 126.592 6.93909C126.66 6.56684 126.83 6.16074 127.102 5.72081C127.544 4.87479 128.853 4.45178 131.029 4.45178C133.341 4.45178 134.718 5.07784 135.16 6.32995C135.33 6.8714 135.415 7.73435 135.415 8.91878V13.8934C136.911 13.758 138.033 13.6904 138.781 13.6904C139.563 13.6904 140.141 13.7242 140.515 13.7919C140.923 13.8257 141.382 13.978 141.892 14.2487C142.776 14.6887 143.218 15.9915 143.218 18.1574C143.218 20.2893 142.759 21.5922 141.841 22.066C141.331 22.3029 140.872 22.4552 140.464 22.5228C140.09 22.5567 139.512 22.5736 138.73 22.5736Z"/>
<path d="M146.034 5.467C146.034 4.68866 146.051 4.11337 146.085 3.74112C146.153 3.33503 146.306 2.87817 146.544 2.37056C147.02 1.45685 148.346 1 150.521 1C152.595 1 153.887 1.45685 154.397 2.37056C154.669 2.87817 154.822 3.33503 154.856 3.74112C154.924 4.14721 154.958 4.73942 154.958 5.51777V29.0203C154.958 30.2386 155.06 31.0169 155.264 31.3553C155.468 31.6599 155.91 31.8122 156.59 31.8122C157.304 31.8122 157.78 31.846 158.018 31.9137C158.256 31.9475 158.545 32.0829 158.885 32.3198C159.565 32.7597 159.905 33.9611 159.905 35.9239C159.905 38.0558 159.565 39.3587 158.885 39.8325C158.001 40.4416 155.893 40.5431 152.561 40.1371C149.943 39.7986 148.244 38.9357 147.462 37.5482C146.51 35.89 146.034 33.2504 146.034 29.6294V5.467Z"/>
<path d="M162.718 18.0558C162.718 17.2775 162.735 16.7022 162.769 16.3299C162.837 15.9239 162.99 15.467 163.228 14.9594C163.703 14.0795 165.029 13.6396 167.205 13.6396C168.837 13.6396 169.993 13.9272 170.673 14.5025C171.251 14.9763 171.557 15.7039 171.591 16.6853C171.625 17.0237 171.642 17.5144 171.642 18.1574V35.9239C171.642 36.7022 171.608 37.2944 171.54 37.7005C171.506 38.0728 171.353 38.5127 171.081 39.0203C170.639 39.9002 169.33 40.3401 167.154 40.3401C165.012 40.3401 163.703 39.8832 163.228 38.9695C162.99 38.4619 162.837 38.022 162.769 37.6497C162.735 37.2775 162.718 36.6853 162.718 35.8731V18.0558ZM171.081 8.66498C170.843 9.13875 170.401 9.47716 169.755 9.6802C169.109 9.88325 168.242 9.98477 167.154 9.98477C166.1 9.98477 165.25 9.88325 164.604 9.6802C163.958 9.47716 163.499 9.12183 163.228 8.61421C162.99 8.1066 162.837 7.66667 162.769 7.29442C162.735 6.88832 162.718 6.29611 162.718 5.51777C162.718 4.73942 162.735 4.16413 162.769 3.79188C162.837 3.38579 162.99 2.94585 163.228 2.47208C163.703 1.55837 165.029 1.10152 167.205 1.10152C169.347 1.10152 170.639 1.55837 171.081 2.47208C171.353 2.9797 171.506 3.43655 171.54 3.84264C171.608 4.21489 171.642 4.79019 171.642 5.56853C171.642 6.34687 171.608 6.93909 171.54 7.34518C171.506 7.71743 171.353 8.15736 171.081 8.66498Z"/>
<path d="M174.951 26.9898C174.951 22.9289 176.379 19.5787 179.235 16.9391C182.091 14.2995 185.355 12.9797 189.027 12.9797C192.698 12.9797 195.945 14.2995 198.767 16.9391C201.589 19.5448 203 22.8782 203 26.9391C203 29.7479 202.269 32.2521 200.807 34.4518C199.345 36.6176 197.56 38.225 195.452 39.2741C193.378 40.2893 191.219 40.797 188.976 40.797C186.732 40.797 184.556 40.2555 182.448 39.1726C180.34 38.0558 178.555 36.4315 177.093 34.2995C175.665 32.1337 174.951 29.6971 174.951 26.9898ZM185.61 30.6447C186.698 31.4569 187.803 31.8629 188.925 31.8629C190.046 31.8629 191.168 31.4399 192.29 30.5939C193.412 29.7479 193.973 28.4958 193.973 26.8376C193.973 25.1794 193.446 23.9442 192.392 23.132C191.338 22.3198 190.2 21.9137 188.976 21.9137C187.752 21.9137 186.613 22.3367 185.559 23.1827C184.505 24.0288 183.978 25.2809 183.978 26.9391C183.978 28.5635 184.522 29.7986 185.61 30.6447Z"/>
</mask>
<path d="M12.0267 31.3553H27.7341C28.516 31.3553 29.094 31.3892 29.468 31.4569C29.876 31.4907 30.335 31.643 30.8449 31.9137C31.7629 32.3875 32.2219 33.7073 32.2219 35.8731C32.2219 38.242 31.5929 39.6294 30.335 40.0355C29.757 40.2386 28.873 40.3401 27.6831 40.3401H7.48783C5.10792 40.3401 3.71397 39.6971 3.30599 38.4112C3.102 37.8697 3 37.0068 3 35.8223V7.59898C3 5.8731 3.32299 4.70558 3.96896 4.09645C4.61494 3.45347 5.83889 3.13198 7.64082 3.13198H27.7341C28.516 3.13198 29.094 3.16582 29.468 3.2335C29.876 3.26734 30.335 3.41963 30.8449 3.69035C31.7629 4.16413 32.2219 5.48393 32.2219 7.64975C32.2219 10.0186 31.5929 11.4061 30.335 11.8122C29.757 12.0152 28.873 12.1168 27.6831 12.1168H12.0267V17.2437H22.1243C22.9062 17.2437 23.4842 17.2775 23.8582 17.3452C24.2662 17.379 24.7252 17.5313 25.2352 17.802C26.1531 18.2758 26.6121 19.5956 26.6121 21.7614C26.6121 24.1303 25.9661 25.5178 24.6742 25.9239C24.0962 26.1269 23.2122 26.2284 22.0223 26.2284H12.0267V31.3553Z" fill="#F76D6D" shape-rendering="crispEdges"/>
<path d="M59.5632 14.198C61.3311 15.247 62.2151 16.3638 62.2151 17.5482C62.2151 18.225 61.8751 19.1557 61.1952 20.3401L50.6386 38.3604C50.2986 38.9357 49.7546 39.4602 49.0066 39.934C48.2586 40.3739 47.5107 40.5939 46.7627 40.5939C46.0487 40.5939 45.3518 40.4247 44.6718 40.0863C44.0258 39.714 43.5668 39.3418 43.2948 38.9695L42.8359 38.4112L32.2283 20.3401C31.5483 19.2234 31.2083 18.3096 31.2083 17.599C31.2083 16.3807 32.0923 15.247 33.8602 14.198C35.1521 13.4535 36.1721 13.0812 36.9201 13.0812C37.668 13.0812 38.246 13.3181 38.654 13.7919C39.096 14.2318 39.555 14.9086 40.031 15.8223L46.7117 28.6142L53.3925 15.8223C53.7664 15.1794 54.0384 14.7225 54.2084 14.4518C54.4124 14.1472 54.7184 13.8596 55.1264 13.5888C55.5344 13.2843 56.0783 13.132 56.7583 13.132C57.4383 13.132 58.3733 13.4873 59.5632 14.198Z" fill="#F76D6D" shape-rendering="crispEdges"/>
<path d="M89.3676 23.7919C89.3676 25.8562 88.8406 27.3959 87.7866 28.4112C86.7667 29.3926 85.6277 29.8832 84.3698 29.8832H72.2832C72.2832 30.8308 72.8442 31.6261 73.9662 32.269C75.0881 32.912 76.2101 33.2335 77.332 33.2335C79.304 33.2335 80.8509 33.0305 81.9729 32.6244L82.5339 32.4213C83.3498 32.0491 84.0298 31.8629 84.5738 31.8629C85.6617 31.8629 86.5967 32.6244 87.3787 34.1472C87.8206 35.0609 88.0416 35.8393 88.0416 36.4822C88.0416 39.4941 84.4208 41 77.179 41C74.6631 41 72.4192 40.577 70.4473 39.731C68.5094 38.8511 66.9964 37.7005 65.9085 36.2792C63.7666 33.5381 62.6956 30.4755 62.6956 27.0914C62.6956 22.8274 64.0726 19.4264 66.8264 16.8883C69.6143 14.3164 73.0822 13.0305 77.23 13.0305C81.9559 13.0305 85.4237 14.6887 87.6337 18.0051C88.7896 19.7648 89.3676 21.6937 89.3676 23.7919ZM78.607 25.264C79.899 25.264 80.5449 24.7225 80.5449 23.6396C80.5449 22.8613 80.2389 22.2352 79.627 21.7614C79.049 21.2876 78.199 21.0508 77.0771 21.0508C75.9891 21.0508 74.9011 21.5076 73.8132 22.4213C72.7252 23.3012 72.1812 24.2487 72.1812 25.264H78.607Z" fill="#F76D6D" shape-rendering="crispEdges"/>
<path d="M107.637 13.5888C111.037 13.5888 113.859 14.8917 116.103 17.4975C118.381 20.0694 119.52 23.2166 119.52 26.9391V35.8731C119.52 36.6514 119.486 37.2437 119.418 37.6497C119.384 38.022 119.248 38.445 119.01 38.9188C118.534 39.8325 117.208 40.2893 115.032 40.2893C112.618 40.2893 111.224 39.6633 110.85 38.4112C110.646 37.8359 110.544 36.9729 110.544 35.8223V26.8883C110.544 25.5008 110.136 24.4179 109.32 23.6396C108.538 22.8613 107.467 22.4721 106.107 22.4721C104.781 22.4721 103.693 22.8782 102.843 23.6904C102.027 24.5025 101.619 25.5685 101.619 26.8883V35.8731C101.619 36.6514 101.585 37.2437 101.517 37.6497C101.483 38.022 101.33 38.445 101.058 38.9188C100.617 39.8325 99.3076 40.2893 97.1316 40.2893C94.9897 40.2893 93.6808 39.8325 93.2048 38.9188C92.9668 38.4112 92.8138 37.9712 92.7458 37.599C92.7118 37.1929 92.6948 36.6007 92.6948 35.8223V17.8528C92.6948 17.1083 92.7118 16.5499 92.7458 16.1777C92.8138 15.7716 92.9838 15.3316 93.2558 14.8579C93.7318 14.0118 95.0407 13.5888 97.1826 13.5888C99.2566 13.5888 100.532 13.978 101.007 14.7563C101.347 15.3316 101.517 16.0254 101.517 16.8376C101.653 16.6007 101.959 16.2623 102.435 15.8223C102.911 15.3824 103.37 15.0271 103.812 14.7563C104.968 13.978 106.243 13.5888 107.637 13.5888Z" fill="#F76D6D" shape-rendering="crispEdges"/>
<path d="M138.73 22.5736L135.415 22.3706V29.3756C135.415 30.2893 135.551 30.9492 135.823 31.3553C136.129 31.7614 136.673 31.9645 137.455 31.9645C138.271 31.9645 138.883 31.9983 139.291 32.066C139.733 32.0998 140.192 32.2521 140.668 32.5228C141.45 32.9628 141.841 34.0964 141.841 35.9239C141.841 38.0558 141.365 39.3587 140.413 39.8325C139.903 40.0694 139.444 40.2217 139.036 40.2893C138.662 40.3232 138.101 40.3401 137.353 40.3401C133.817 40.3401 131.131 39.5448 129.295 37.9543C127.459 36.3638 126.541 33.6734 126.541 29.8832V22.3706C125.895 22.4721 125.198 22.5228 124.45 22.5228C123.702 22.5228 123.073 22.2352 122.563 21.6599C122.087 21.0846 121.849 20.1032 121.849 18.7157C121.849 17.3283 121.934 16.3299 122.104 15.7208C122.274 15.0778 122.512 14.621 122.818 14.3503C123.362 13.9103 124.042 13.6904 124.858 13.6904L126.541 13.8934V8.66498C126.541 7.88663 126.558 7.31134 126.592 6.93909C126.66 6.56684 126.83 6.16074 127.102 5.72081C127.544 4.87479 128.853 4.45178 131.029 4.45178C133.341 4.45178 134.718 5.07784 135.16 6.32995C135.33 6.8714 135.415 7.73435 135.415 8.91878V13.8934C136.911 13.758 138.033 13.6904 138.781 13.6904C139.563 13.6904 140.141 13.7242 140.515 13.7919C140.923 13.8257 141.382 13.978 141.892 14.2487C142.776 14.6887 143.218 15.9915 143.218 18.1574C143.218 20.2893 142.759 21.5922 141.841 22.066C141.331 22.3029 140.872 22.4552 140.464 22.5228C140.09 22.5567 139.512 22.5736 138.73 22.5736Z" fill="#F76D6D" shape-rendering="crispEdges"/>
<path d="M146.034 5.467C146.034 4.68866 146.051 4.11337 146.085 3.74112C146.153 3.33503 146.306 2.87817 146.544 2.37056C147.02 1.45685 148.346 1 150.521 1C152.595 1 153.887 1.45685 154.397 2.37056C154.669 2.87817 154.822 3.33503 154.856 3.74112C154.924 4.14721 154.958 4.73942 154.958 5.51777V29.0203C154.958 30.2386 155.06 31.0169 155.264 31.3553C155.468 31.6599 155.91 31.8122 156.59 31.8122C157.304 31.8122 157.78 31.846 158.018 31.9137C158.256 31.9475 158.545 32.0829 158.885 32.3198C159.565 32.7597 159.905 33.9611 159.905 35.9239C159.905 38.0558 159.565 39.3587 158.885 39.8325C158.001 40.4416 155.893 40.5431 152.561 40.1371C149.943 39.7986 148.244 38.9357 147.462 37.5482C146.51 35.89 146.034 33.2504 146.034 29.6294V5.467Z" fill="#F76D6D" shape-rendering="crispEdges"/>
<path d="M162.718 18.0558C162.718 17.2775 162.735 16.7022 162.769 16.3299C162.837 15.9239 162.99 15.467 163.228 14.9594C163.703 14.0795 165.029 13.6396 167.205 13.6396C168.837 13.6396 169.993 13.9272 170.673 14.5025C171.251 14.9763 171.557 15.7039 171.591 16.6853C171.625 17.0237 171.642 17.5144 171.642 18.1574V35.9239C171.642 36.7022 171.608 37.2944 171.54 37.7005C171.506 38.0728 171.353 38.5127 171.081 39.0203C170.639 39.9002 169.33 40.3401 167.154 40.3401C165.012 40.3401 163.703 39.8832 163.228 38.9695C162.99 38.4619 162.837 38.022 162.769 37.6497C162.735 37.2775 162.718 36.6853 162.718 35.8731V18.0558ZM171.081 8.66498C170.843 9.13875 170.401 9.47716 169.755 9.6802C169.109 9.88325 168.242 9.98477 167.154 9.98477C166.1 9.98477 165.25 9.88325 164.604 9.6802C163.958 9.47716 163.499 9.12183 163.228 8.61421C162.99 8.1066 162.837 7.66667 162.769 7.29442C162.735 6.88832 162.718 6.29611 162.718 5.51777C162.718 4.73942 162.735 4.16413 162.769 3.79188C162.837 3.38579 162.99 2.94585 163.228 2.47208C163.703 1.55837 165.029 1.10152 167.205 1.10152C169.347 1.10152 170.639 1.55837 171.081 2.47208C171.353 2.9797 171.506 3.43655 171.54 3.84264C171.608 4.21489 171.642 4.79019 171.642 5.56853C171.642 6.34687 171.608 6.93909 171.54 7.34518C171.506 7.71743 171.353 8.15736 171.081 8.66498Z" fill="#F76D6D" shape-rendering="crispEdges"/>
<path d="M174.951 26.9898C174.951 22.9289 176.379 19.5787 179.235 16.9391C182.091 14.2995 185.355 12.9797 189.027 12.9797C192.698 12.9797 195.945 14.2995 198.767 16.9391C201.589 19.5448 203 22.8782 203 26.9391C203 29.7479 202.269 32.2521 200.807 34.4518C199.345 36.6176 197.56 38.225 195.452 39.2741C193.378 40.2893 191.219 40.797 188.976 40.797C186.732 40.797 184.556 40.2555 182.448 39.1726C180.34 38.0558 178.555 36.4315 177.093 34.2995C175.665 32.1337 174.951 29.6971 174.951 26.9898ZM185.61 30.6447C186.698 31.4569 187.803 31.8629 188.925 31.8629C190.046 31.8629 191.168 31.4399 192.29 30.5939C193.412 29.7479 193.973 28.4958 193.973 26.8376C193.973 25.1794 193.446 23.9442 192.392 23.132C191.338 22.3198 190.2 21.9137 188.976 21.9137C187.752 21.9137 186.613 22.3367 185.559 23.1827C184.505 24.0288 183.978 25.2809 183.978 26.9391C183.978 28.5635 184.522 29.7986 185.61 30.6447Z" fill="#F76D6D" shape-rendering="crispEdges"/>
<path d="M12.0267 31.3553H11.0267V32.3553H12.0267V31.3553ZM29.468 31.4569L29.2899 32.4409L29.3373 32.4494L29.3853 32.4534L29.468 31.4569ZM30.8449 31.9137L30.376 32.797L30.3863 32.8023L30.8449 31.9137ZM30.335 40.0355L30.0277 39.0839L30.0156 39.0878L30.0035 39.0921L30.335 40.0355ZM3.30599 38.4112L4.25917 38.1088L4.25114 38.0835L4.24178 38.0586L3.30599 38.4112ZM3.96896 4.09645L4.65502 4.82399L4.66485 4.81473L4.67442 4.8052L3.96896 4.09645ZM29.468 3.2335L29.2899 4.21752L29.3373 4.2261L29.3853 4.23008L29.468 3.2335ZM30.8449 3.69035L30.376 4.57367L30.3863 4.57898L30.8449 3.69035ZM30.335 11.8122L30.0277 10.8605L30.0156 10.8645L30.0035 10.8687L30.335 11.8122ZM12.0267 12.1168V11.1168H11.0267V12.1168H12.0267ZM12.0267 17.2437H11.0267V18.2437H12.0267V17.2437ZM23.8582 17.3452L23.6801 18.3292L23.7275 18.3378L23.7755 18.3418L23.8582 17.3452ZM25.2352 17.802L24.7662 18.6853L24.7765 18.6907L25.2352 17.802ZM24.6742 25.9239L24.3743 24.9699L24.3584 24.9749L24.3427 24.9804L24.6742 25.9239ZM12.0267 26.2284V25.2284H11.0267V26.2284H12.0267ZM59.5632 14.198L59.0505 15.0565L59.0529 15.058L59.5632 14.198ZM61.1952 20.3401L62.058 20.8456L62.0624 20.838L61.1952 20.3401ZM50.6386 38.3604L51.4995 38.8692L51.5014 38.8659L50.6386 38.3604ZM49.0066 39.934L49.5136 40.796L49.5278 40.7876L49.5417 40.7788L49.0066 39.934ZM44.6718 40.0863L44.1725 40.9527L44.1989 40.968L44.2262 40.9815L44.6718 40.0863ZM43.2948 38.9695L44.1023 38.3796L44.0854 38.3566L44.0673 38.3345L43.2948 38.9695ZM42.8359 38.4112L41.9735 38.9174L42.0133 38.9853L42.0633 39.0462L42.8359 38.4112ZM32.2283 20.3401L33.0907 19.8339L33.0866 19.8269L33.0824 19.82L32.2283 20.3401ZM33.8602 14.198L33.3609 13.3315L33.3499 13.338L33.8602 14.198ZM38.654 13.7919L37.8963 14.4444L37.9213 14.4735L37.9486 14.5006L38.654 13.7919ZM40.031 15.8223L39.1441 16.2843L39.1446 16.2853L40.031 15.8223ZM46.7117 28.6142L45.8253 29.0771L46.7117 30.7744L47.5981 29.0771L46.7117 28.6142ZM53.3925 15.8223L52.528 15.3196L52.5166 15.3392L52.5061 15.3594L53.3925 15.8223ZM54.2084 14.4518L53.3776 13.8953L53.3694 13.9075L53.3615 13.92L54.2084 14.4518ZM55.1264 13.5888L55.6793 14.4221L55.7024 14.4067L55.7246 14.3902L55.1264 13.5888ZM87.7866 28.4112L88.48 29.1318L88.4804 29.1314L87.7866 28.4112ZM72.2832 29.8832V28.8832H71.2832V29.8832H72.2832ZM73.9662 32.269L74.4634 31.4014L74.4634 31.4014L73.9662 32.269ZM81.9729 32.6244L81.6325 31.6841L81.6325 31.6841L81.9729 32.6244ZM82.5339 32.4213L82.8742 33.3616L82.9122 33.3479L82.9489 33.3311L82.5339 32.4213ZM87.3787 34.1472L88.2789 33.7117L88.2737 33.701L88.2682 33.6904L87.3787 34.1472ZM70.4473 39.731L70.0339 40.6415L70.0434 40.6458L70.053 40.65L70.4473 39.731ZM65.9085 36.2792L66.7026 35.6713L66.6964 35.6635L65.9085 36.2792ZM66.8264 16.8883L67.5042 17.6237L67.5045 17.6233L66.8264 16.8883ZM87.6337 18.0051L88.4695 17.456L88.4658 17.4506L87.6337 18.0051ZM79.627 21.7614L78.993 22.5348L79.0038 22.5436L79.0148 22.5522L79.627 21.7614ZM73.8132 22.4213L74.442 23.1989L74.4492 23.193L74.4563 23.1871L73.8132 22.4213ZM72.1812 25.264H71.1812V26.264H72.1812V25.264ZM116.103 17.4975L115.345 18.1501L115.354 18.1605L116.103 17.4975ZM119.418 37.6497L118.432 37.4846L118.425 37.5215L118.422 37.5588L119.418 37.6497ZM119.01 38.9188L119.897 39.3808L119.9 39.3743L119.903 39.3677L119.01 38.9188ZM110.85 38.4112L111.808 38.125L111.801 38.1008L111.793 38.077L110.85 38.4112ZM109.32 23.6396L108.615 24.3483L108.622 24.3558L108.63 24.3632L109.32 23.6396ZM102.843 23.6904L102.153 22.9674L102.145 22.9744L102.138 22.9816L102.843 23.6904ZM101.517 37.6497L100.531 37.4846L100.525 37.5215L100.522 37.5588L101.517 37.6497ZM101.058 38.9188L100.191 38.4209L100.174 38.4515L100.158 38.4833L101.058 38.9188ZM93.2048 38.9188L92.2994 39.3433L92.3082 39.3622L92.3179 39.3808L93.2048 38.9188ZM92.7458 37.599L91.7493 37.6824L91.7534 37.7309L91.7621 37.7787L92.7458 37.599ZM92.7458 16.1777L91.7595 16.0125L91.7534 16.0494L91.75 16.0867L92.7458 16.1777ZM93.2558 14.8579L94.1231 15.3558L94.1273 15.3482L93.2558 14.8579ZM101.007 14.7563L101.868 14.2476L101.865 14.2411L101.861 14.2346L101.007 14.7563ZM101.517 16.8376H100.517V20.588L102.385 17.3354L101.517 16.8376ZM102.435 15.8223L103.114 16.5567L103.114 16.5567L102.435 15.8223ZM103.812 14.7563L104.335 15.6091L104.353 15.5979L104.371 15.5858L103.812 14.7563ZM138.73 22.5736L138.669 23.5717L138.699 23.5736H138.73V22.5736ZM135.415 22.3706L135.476 21.3724L134.415 21.3074V22.3706H135.415ZM135.823 31.3553L134.992 31.9118L135.007 31.9349L135.024 31.9571L135.823 31.3553ZM139.291 32.066L139.127 33.0525L139.17 33.0597L139.214 33.0631L139.291 32.066ZM140.668 32.5228L140.173 33.3921L140.177 33.3944L140.668 32.5228ZM140.413 39.8325L140.834 40.7394L140.846 40.7337L140.858 40.7277L140.413 39.8325ZM139.036 40.2893L139.126 41.2853L139.163 41.2819L139.199 41.2759L139.036 40.2893ZM129.295 37.9543L129.95 37.1985L129.95 37.1985L129.295 37.9543ZM126.541 22.3706H127.541V21.2011L126.386 21.3827L126.541 22.3706ZM122.563 21.6599L121.793 22.2974L121.804 22.3105L121.815 22.3232L122.563 21.6599ZM122.104 15.7208L123.068 15.9896L123.071 15.9764L122.104 15.7208ZM122.818 14.3503L122.19 13.5727L122.172 13.5866L122.156 13.6013L122.818 14.3503ZM124.858 13.6904L124.978 12.6976L124.918 12.6904H124.858V13.6904ZM126.541 13.8934L126.421 14.8862L127.541 15.0213V13.8934H126.541ZM126.592 6.93909L125.608 6.75939L125.6 6.80349L125.596 6.84813L126.592 6.93909ZM127.102 5.72081L127.953 6.24668L127.972 6.21591L127.988 6.18386L127.102 5.72081ZM135.16 6.32995L136.114 6.03041L136.109 6.01365L136.103 5.99709L135.16 6.32995ZM135.415 13.8934H134.415V14.988L135.505 14.8893L135.415 13.8934ZM140.515 13.7919L140.337 14.7759L140.384 14.7845L140.432 14.7885L140.515 13.7919ZM141.892 14.2487L141.423 15.132L141.434 15.1381L141.446 15.144L141.892 14.2487ZM141.841 22.066L142.262 22.9729L142.281 22.9642L142.299 22.9546L141.841 22.066ZM140.464 22.5228L140.554 23.5188L140.591 23.5154L140.627 23.5094L140.464 22.5228ZM146.085 3.74112L145.098 3.57597L145.092 3.61289L145.089 3.65016L146.085 3.74112ZM146.544 2.37056L145.657 1.90855L145.647 1.92711L145.638 1.94606L146.544 2.37056ZM154.397 2.37056L155.279 1.89826L155.275 1.89069L155.27 1.88319L154.397 2.37056ZM154.856 3.74112L153.86 3.82455L153.863 3.86562L153.87 3.90626L154.856 3.74112ZM155.264 31.3553L154.408 31.8716L154.42 31.892L154.433 31.9118L155.264 31.3553ZM158.018 31.9137L157.745 32.8756L157.81 32.8942L157.877 32.9037L158.018 31.9137ZM158.885 32.3198L158.313 33.1403L158.327 33.1501L158.342 33.1594L158.885 32.3198ZM158.885 39.8325L159.453 40.6559L159.457 40.653L158.885 39.8325ZM152.561 40.1371L152.433 41.1288L152.44 41.1297L152.561 40.1371ZM147.462 37.5482L148.333 37.0572L148.329 37.0503L147.462 37.5482ZM162.769 16.3299L161.782 16.1648L161.776 16.2017L161.773 16.239L162.769 16.3299ZM163.228 14.9594L162.348 14.4836L162.334 14.5089L162.322 14.5349L163.228 14.9594ZM170.673 14.5025L170.027 15.266L170.033 15.271L170.039 15.2759L170.673 14.5025ZM171.591 16.6853L170.592 16.7199L170.593 16.7526L170.596 16.7852L171.591 16.6853ZM171.54 37.7005L170.554 37.5354L170.548 37.5723L170.544 37.6096L171.54 37.7005ZM171.081 39.0203L170.2 38.548L170.194 38.5596L170.188 38.5714L171.081 39.0203ZM163.228 38.9695L162.322 39.394L162.331 39.413L162.341 39.4315L163.228 38.9695ZM162.769 37.6497L161.773 37.7407L161.777 37.7853L161.785 37.8294L162.769 37.6497ZM171.081 8.66498L170.2 8.19268L170.194 8.20431L170.188 8.2161L171.081 8.66498ZM169.755 9.6802L169.455 8.72622L169.455 8.72622L169.755 9.6802ZM164.604 9.6802L164.904 8.72622L164.904 8.72622L164.604 9.6802ZM163.228 8.61421L162.322 9.03872L162.333 9.06293L162.346 9.08651L163.228 8.61421ZM162.769 7.29442L161.772 7.37785L161.776 7.42629L161.785 7.47411L162.769 7.29442ZM162.769 3.79188L161.782 3.62673L161.776 3.66365L161.773 3.70092L162.769 3.79188ZM163.228 2.47208L162.341 2.01007L162.337 2.01661L162.334 2.0232L163.228 2.47208ZM171.081 2.47208L170.181 2.90754L170.19 2.92615L170.2 2.94437L171.081 2.47208ZM171.54 3.84264L170.544 3.92607L170.548 3.97451L170.556 4.02233L171.54 3.84264ZM171.54 7.34518L170.554 7.18004L170.548 7.21695L170.544 7.25422L171.54 7.34518ZM179.235 16.9391L179.914 17.6735L179.914 17.6735L179.235 16.9391ZM198.767 16.9391L198.084 17.6694L198.089 17.6738L198.767 16.9391ZM200.807 34.4518L201.636 35.0113L201.64 35.0053L200.807 34.4518ZM195.452 39.2741L195.892 40.1723L195.898 40.1694L195.452 39.2741ZM182.448 39.1726L181.98 40.0563L181.991 40.0621L182.448 39.1726ZM177.093 34.2995L176.258 34.8499L176.263 34.8575L176.268 34.865L177.093 34.2995ZM185.61 30.6447L184.996 31.4341L185.004 31.4401L185.011 31.446L185.61 30.6447ZM192.29 30.5939L191.688 29.7955L191.688 29.7955L192.29 30.5939ZM192.392 23.132L191.782 23.9241L191.782 23.9241L192.392 23.132ZM185.559 23.1827L184.933 22.4029L184.933 22.4029L185.559 23.1827ZM12.0267 32.3553H27.7341V30.3553H12.0267V32.3553ZM27.7341 32.3553C28.505 32.3553 29.0085 32.3899 29.2899 32.4409L29.6461 30.4728C29.1795 30.3884 28.527 30.3553 27.7341 30.3553V32.3553ZM29.3853 32.4534C29.6148 32.4725 29.9402 32.5656 30.3761 32.797L31.3138 31.0304C30.7297 30.7204 30.1371 30.5089 29.5507 30.4603L29.3853 32.4534ZM30.3863 32.8023C30.547 32.8853 30.7576 33.0825 30.9331 33.5874C31.1115 34.1001 31.2219 34.8475 31.2219 35.8731H33.2219C33.2219 34.7329 33.1028 33.7374 32.8222 32.9304C32.5388 32.1155 32.0608 31.4159 31.3036 31.0251L30.3863 32.8023ZM31.2219 35.8731C31.2219 38.1884 30.5999 38.8992 30.0277 39.0839L30.6422 40.9872C32.5859 40.3597 33.2219 38.2955 33.2219 35.8731H31.2219ZM30.0035 39.0921C29.5905 39.2371 28.8457 39.3401 27.6831 39.3401V41.3401C28.9003 41.3401 29.9235 41.24 30.6664 40.979L30.0035 39.0921ZM27.6831 39.3401H7.48783V41.3401H27.6831V39.3401ZM7.48783 39.3401C5.17126 39.3401 4.44985 38.7098 4.25917 38.1088L2.35281 38.7136C2.9781 40.6845 5.04458 41.3401 7.48783 41.3401V39.3401ZM4.24178 38.0586C4.10497 37.6955 4 36.9855 4 35.8223H2C2 37.028 2.09903 38.044 2.3702 38.7637L4.24178 38.0586ZM4 35.8223V7.59898H2V35.8223H4ZM4 7.59898C4 5.91774 4.3311 5.12944 4.65502 4.82399L3.28291 3.3689C2.31488 4.28172 2 5.82846 2 7.59898H4ZM4.67442 4.8052C5.01815 4.46306 5.87798 4.13198 7.64082 4.13198V2.13198C5.7998 2.13198 4.21173 2.44387 3.2635 3.3877L4.67442 4.8052ZM7.64082 4.13198H27.7341V2.13198H7.64082V4.13198ZM27.7341 4.13198C28.505 4.13198 29.0085 4.16659 29.2899 4.21752L29.6461 2.24949C29.1795 2.16505 28.527 2.13198 27.7341 2.13198V4.13198ZM29.3853 4.23008C29.6148 4.24912 29.9402 4.34224 30.3761 4.57361L31.3138 2.80709C30.7297 2.49702 30.1371 2.28557 29.5506 2.23693L29.3853 4.23008ZM30.3863 4.57898C30.547 4.66193 30.7576 4.85912 30.9331 5.364C31.1115 5.8768 31.2219 6.62412 31.2219 7.64975H33.2219C33.2219 6.50955 33.1028 5.51407 32.8222 4.70706C32.5388 3.89214 32.0608 3.19255 31.3036 2.80173L30.3863 4.57898ZM31.2219 7.64975C31.2219 9.96506 30.5999 10.6758 30.0277 10.8605L30.6422 12.7638C32.5859 12.1363 33.2219 10.0722 33.2219 7.64975H31.2219ZM30.0035 10.8687C29.5905 11.0138 28.8457 11.1168 27.6831 11.1168V13.1168C28.9003 13.1168 29.9235 13.0167 30.6664 12.7557L30.0035 10.8687ZM27.6831 11.1168H12.0267V13.1168H27.6831V11.1168ZM11.0267 12.1168V17.2437H13.0267V12.1168H11.0267ZM12.0267 18.2437H22.1243V16.2437H12.0267V18.2437ZM22.1243 18.2437C22.8952 18.2437 23.3987 18.2783 23.6801 18.3292L24.0363 16.3612C23.5697 16.2767 22.9172 16.2437 22.1243 16.2437V18.2437ZM23.7755 18.3418C24.0051 18.3608 24.3304 18.4539 24.7663 18.6853L25.704 16.9188C25.1199 16.6087 24.5273 16.3972 23.9409 16.3486L23.7755 18.3418ZM24.7765 18.6907C24.9372 18.7736 25.1478 18.9708 25.3233 19.4757C25.5017 19.9885 25.6121 20.7358 25.6121 21.7614H27.6121C27.6121 20.6212 27.493 19.6257 27.2124 18.8187C26.929 18.0038 26.451 17.3042 25.6938 16.9134L24.7765 18.6907ZM25.6121 21.7614C25.6121 24.0616 24.9819 24.7789 24.3743 24.9699L24.974 26.8778C26.9503 26.2566 27.6121 24.1989 27.6121 21.7614H25.6121ZM24.3427 24.9804C23.9297 25.1255 23.1849 25.2284 22.0223 25.2284V27.2284C23.2395 27.2284 24.2627 27.1283 25.0056 26.8673L24.3427 24.9804ZM22.0223 25.2284H12.0267V27.2284H22.0223V25.2284ZM11.0267 26.2284V31.3553H13.0267V26.2284H11.0267ZM59.0529 15.058C60.7437 16.0612 61.2151 16.918 61.2151 17.5482H63.2151C63.2151 15.8096 61.9186 14.4328 60.0735 13.338L59.0529 15.058ZM61.2151 17.5482C61.2151 17.9475 60.9928 18.6841 60.3279 19.8422L62.0624 20.838C62.7575 19.6273 63.2151 18.5025 63.2151 17.5482H61.2151ZM60.3323 19.8346L49.7757 37.8549L51.5014 38.8659L62.058 20.8456L60.3323 19.8346ZM49.7777 37.8516C49.54 38.2538 49.1275 38.6737 48.4715 39.0892L49.5417 40.7788C50.3817 40.2468 51.0572 39.6176 51.4995 38.8692L49.7777 37.8516ZM48.4996 39.0721C47.8804 39.4363 47.3055 39.5939 46.7627 39.5939V41.5939C47.7158 41.5939 48.6369 41.3116 49.5136 40.796L48.4996 39.0721ZM46.7627 39.5939C46.2132 39.5939 45.6679 39.4651 45.1173 39.191L44.2262 40.9815C45.0356 41.3843 45.8843 41.5939 46.7627 41.5939V39.5939ZM45.1711 39.2199C44.5802 38.8794 44.2566 38.5908 44.1023 38.3796L42.4874 39.5595C42.877 40.0928 43.4714 40.5487 44.1725 40.9527L45.1711 39.2199ZM44.0673 38.3345L43.6084 37.7762L42.0633 39.0462L42.5223 39.6045L44.0673 38.3345ZM43.6983 37.9049L33.0907 19.8339L31.3659 20.8463L41.9735 38.9174L43.6983 37.9049ZM33.0824 19.82C32.4295 18.7478 32.2083 18.0286 32.2083 17.599H30.2083C30.2083 18.5907 30.6671 19.6989 31.3741 20.8602L33.0824 19.82ZM32.2083 17.599C32.2083 16.9267 32.6918 16.0541 34.3705 15.058L33.3499 13.338C31.4928 14.44 30.2083 15.8347 30.2083 17.599H32.2083ZM34.3595 15.0644C35.6229 14.3364 36.4492 14.0812 36.9201 14.0812V12.0812C35.895 12.0812 34.6814 12.5706 33.3609 13.3315L34.3595 15.0644ZM36.9201 14.0812C37.4397 14.0812 37.7157 14.2347 37.8963 14.4444L39.4118 13.1393C38.7764 12.4015 37.8964 12.0812 36.9201 12.0812V14.0812ZM37.9486 14.5006C38.2858 14.8363 38.6889 15.4106 39.1441 16.2843L40.9178 15.3603C40.4211 14.4067 39.9062 13.6273 39.3595 13.0831L37.9486 14.5006ZM39.1446 16.2853L45.8253 29.0771L47.5981 28.1513L40.9174 15.3594L39.1446 16.2853ZM47.5981 29.0771L54.2788 16.2853L52.5061 15.3594L45.8253 28.1513L47.5981 29.0771ZM54.2569 16.3251C54.6306 15.6826 54.8952 15.2386 55.0553 14.9835L53.3615 13.92C53.1817 14.2064 52.9023 14.6762 52.528 15.3196L54.2569 16.3251ZM55.0393 15.0083C55.1496 14.8435 55.3464 14.6429 55.6793 14.4221L54.5735 12.7556C54.0904 13.0762 53.6752 13.4509 53.3776 13.8953L55.0393 15.0083ZM55.7246 14.3902C55.91 14.2518 56.2222 14.132 56.7583 14.132V12.132C55.9345 12.132 55.1587 12.3168 54.5282 12.7875L55.7246 14.3902ZM56.7583 14.132C57.1501 14.132 57.8851 14.3605 59.0505 15.0565L60.076 13.3394C58.8615 12.6141 57.7265 12.132 56.7583 12.132V14.132ZM88.3676 23.7919C88.3676 25.698 87.8822 26.9307 87.0929 27.6909L88.4804 29.1314C89.799 27.8612 90.3676 26.0143 90.3676 23.7919H88.3676ZM87.0933 27.6906C86.2343 28.517 85.3361 28.8832 84.3698 28.8832V30.8832C85.9194 30.8832 87.299 30.2681 88.48 29.1318L87.0933 27.6906ZM84.3698 28.8832H72.2832V30.8832H84.3698V28.8832ZM71.2832 29.8832C71.2832 31.3158 72.1642 32.3889 73.469 33.1367L74.4634 31.4014C73.5242 30.8632 73.2832 30.3458 73.2832 29.8832H71.2832ZM73.469 33.1367C74.7189 33.853 76.0105 34.2335 77.332 34.2335V32.2335C76.4097 32.2335 75.4574 31.9711 74.4634 31.4014L73.469 33.1367ZM77.332 34.2335C79.3545 34.2335 81.034 34.0277 82.3132 33.5647L81.6325 31.6841C80.6678 32.0332 79.2535 32.2335 77.332 32.2335V34.2335ZM82.3132 33.5647L82.8742 33.3616L82.1935 31.481L81.6325 31.6841L82.3132 33.5647ZM82.9489 33.3311C83.7086 32.9845 84.2367 32.8629 84.5738 32.8629V30.8629C83.8229 30.8629 82.991 31.1136 82.1188 31.5115L82.9489 33.3311ZM84.5738 32.8629C85.0995 32.8629 85.7715 33.2065 86.4891 34.604L88.2682 33.6904C87.4219 32.0422 86.2239 30.8629 84.5738 30.8629V32.8629ZM86.4785 34.5827C86.8888 35.4309 87.0416 36.0524 87.0416 36.4822H89.0416C89.0416 35.6261 88.7525 34.6909 88.2789 33.7117L86.4785 34.5827ZM87.0416 36.4822C87.0416 37.0177 86.8867 37.4537 86.5824 37.8334C86.2655 38.2288 85.7448 38.6133 84.942 38.9472C83.3166 39.6232 80.7607 40 77.179 40V42C80.8391 42 83.7145 41.6238 85.71 40.7939C86.7176 40.3748 87.5548 39.8181 88.143 39.0842C88.7439 38.3344 89.0416 37.4526 89.0416 36.4822H87.0416ZM77.179 40C74.7756 40 72.6693 39.5961 70.8416 38.812L70.053 40.65C72.1691 41.5578 74.5507 42 77.179 42V40ZM70.8607 38.8204C69.0444 37.9958 67.6732 36.9394 66.7026 35.6714L65.1144 36.887C66.3197 38.4616 67.9744 39.7064 70.0339 40.6415L70.8607 38.8204ZM66.6964 35.6635C64.6878 33.0929 63.6956 30.2457 63.6956 27.0914H61.6956C61.6956 30.7053 62.8454 33.9833 65.1205 36.8949L66.6964 35.6635ZM63.6956 27.0914C63.6956 23.0641 64.9851 19.9453 67.5042 17.6237L66.1487 16.153C63.16 18.9075 61.6956 22.5907 61.6956 27.0914H63.6956ZM67.5045 17.6233C70.0897 15.2384 73.3079 14.0305 77.23 14.0305V12.0305C72.8565 12.0305 69.1389 13.3945 66.1484 16.1533L67.5045 17.6233ZM77.23 14.0305C81.6931 14.0305 84.8135 15.5763 86.8015 18.5596L88.4658 17.4506C86.034 13.8011 82.2186 12.0305 77.23 12.0305V14.0305ZM86.7979 18.5541C87.8471 20.1514 88.3676 21.8896 88.3676 23.7919H90.3676C90.3676 21.4979 89.7321 19.3782 88.4695 17.456L86.7979 18.5541ZM78.607 26.264C79.3683 26.264 80.1256 26.1081 80.7028 25.6243C81.3139 25.1121 81.5449 24.3861 81.5449 23.6396H79.5449C79.5449 23.976 79.453 24.0622 79.4181 24.0915C79.3493 24.1491 79.1376 24.264 78.607 24.264V26.264ZM81.5449 23.6396C81.5449 22.5539 81.0974 21.6351 80.2391 20.9707L79.0148 22.5522C79.3805 22.8353 79.5449 23.1686 79.5449 23.6396H81.5449ZM80.2609 20.988C79.4337 20.31 78.3189 20.0508 77.0771 20.0508V22.0508C78.0792 22.0508 78.6642 22.2653 78.993 22.5348L80.2609 20.988ZM77.0771 20.0508C75.6899 20.0508 74.3823 20.6375 73.1701 21.6556L74.4563 23.1871C75.42 22.3777 76.2883 22.0508 77.0771 22.0508V20.0508ZM73.1844 21.6438C71.9555 22.6376 71.1812 23.8438 71.1812 25.264H73.1812C73.1812 24.6536 73.4949 23.9648 74.442 23.1989L73.1844 21.6438ZM72.1812 26.264H78.607V24.264H72.1812V26.264ZM107.637 14.5888C110.742 14.5888 113.289 15.7619 115.345 18.15L116.861 16.8449C114.429 14.0215 111.332 12.5888 107.637 12.5888V14.5888ZM115.354 18.1605C117.456 20.5336 118.52 23.4388 118.52 26.9391H120.52C120.52 22.9944 119.305 19.6051 116.852 16.8344L115.354 18.1605ZM118.52 26.9391V35.8731H120.52V26.9391H118.52ZM118.52 35.8731C118.52 36.6356 118.486 37.1617 118.432 37.4846L120.404 37.8149C120.486 37.3256 120.52 36.6672 120.52 35.8731H118.52ZM118.422 37.5588C118.403 37.7659 118.32 38.0648 118.116 38.4699L119.903 39.3677C120.176 38.8252 120.365 38.2781 120.414 37.7407L118.422 37.5588ZM118.123 38.4568C118.04 38.615 117.842 38.8256 117.333 39.0012C116.816 39.1794 116.063 39.2893 115.032 39.2893V41.2893C116.177 41.2893 117.175 41.1709 117.984 40.8922C118.8 40.611 119.503 40.1363 119.897 39.3808L118.123 38.4568ZM115.032 39.2893C113.893 39.2893 113.101 39.1389 112.586 38.9076C112.104 38.6913 111.898 38.4244 111.808 38.125L109.892 38.6974C110.177 39.6501 110.854 40.3222 111.766 40.732C112.645 41.1268 113.757 41.2893 115.032 41.2893V39.2893ZM111.793 38.077C111.647 37.6659 111.544 36.9413 111.544 35.8223H109.544C109.544 37.0045 109.645 38.0059 109.908 38.7454L111.793 38.077ZM111.544 35.8223V26.8883H109.544V35.8223H111.544ZM111.544 26.8883C111.544 25.2948 111.068 23.925 110.01 22.916L108.63 24.3632C109.204 24.9109 109.544 25.7069 109.544 26.8883H111.544ZM110.026 22.9308C109.015 21.9245 107.666 21.4721 106.107 21.4721V23.4721C107.268 23.4721 108.062 23.798 108.615 24.3483L110.026 22.9308ZM106.107 21.4721C104.56 21.4721 103.213 21.9542 102.153 22.9674L103.534 24.4134C104.174 23.8021 105.003 23.4721 106.107 23.4721V21.4721ZM102.138 22.9816C101.105 24.0093 100.619 25.3448 100.619 26.8883H102.619C102.619 25.7922 102.949 24.9957 103.549 24.3991L102.138 22.9816ZM100.619 26.8883V35.8731H102.619V26.8883H100.619ZM100.619 35.8731C100.619 36.6356 100.585 37.1617 100.531 37.4846L102.504 37.8149C102.586 37.3256 102.619 36.6673 102.619 35.8731H100.619ZM100.522 37.5588C100.505 37.7373 100.422 38.019 100.191 38.4209L101.926 39.4167C102.239 38.871 102.462 38.3067 102.513 37.7407L100.522 37.5588ZM100.158 38.4833C100.09 38.6252 99.9138 38.8287 99.4158 39.0026C98.9098 39.1791 98.1638 39.2893 97.1316 39.2893V41.2893C98.2754 41.2893 99.2718 41.1711 100.075 40.8908C100.886 40.6078 101.585 40.1261 101.959 39.3542L100.158 38.4833ZM97.1316 39.2893C96.1186 39.2893 95.3802 39.1796 94.873 39.0026C94.3742 38.8284 94.1762 38.6191 94.0917 38.4568L92.3179 39.3808C92.7093 40.1322 93.4039 40.6081 94.214 40.8908C95.0157 41.1707 96.0028 41.2893 97.1316 41.2893V39.2893ZM94.1102 38.4943C93.893 38.031 93.7766 37.6769 93.7295 37.4193L91.7621 37.7787C91.851 38.2656 92.0406 38.7913 92.2994 39.3433L94.1102 38.4943ZM93.7423 37.5156C93.7119 37.1519 93.6948 36.593 93.6948 35.8223H91.6948C91.6948 36.6084 91.7117 37.2339 91.7493 37.6824L93.7423 37.5156ZM93.6948 35.8223V17.8528H91.6948V35.8223H93.6948ZM93.6948 17.8528C93.6948 17.1152 93.712 16.5939 93.7417 16.2686L91.75 16.0867C91.7117 16.5059 91.6948 17.1014 91.6948 17.8528H93.6948ZM93.7321 16.3428C93.7752 16.0851 93.892 15.7582 94.123 15.3557L92.3885 14.36C92.0756 14.905 91.8524 15.458 91.7595 16.0125L93.7321 16.3428ZM94.1273 15.3482C94.1988 15.2212 94.3872 15.024 94.902 14.8576C95.4179 14.6909 96.1647 14.5888 97.1826 14.5888V12.5888C96.0586 12.5888 95.0801 12.6982 94.287 12.9545C93.4928 13.2112 92.7888 13.6485 92.3843 14.3675L94.1273 15.3482ZM97.1826 14.5888C98.1691 14.5888 98.8968 14.6828 99.4023 14.8371C99.9117 14.9926 100.092 15.1758 100.154 15.2781L101.861 14.2346C101.447 13.5586 100.752 13.158 99.9862 12.9243C99.2169 12.6894 98.2701 12.5888 97.1826 12.5888V14.5888ZM100.147 15.2651C100.378 15.6562 100.517 16.1658 100.517 16.8376H102.517C102.517 15.8849 102.317 15.007 101.868 14.2476L100.147 15.2651ZM102.385 17.3354C102.437 17.2444 102.639 16.9963 103.114 16.5567L101.757 15.088C101.28 15.5282 100.87 15.9569 100.65 16.3397L102.385 17.3354ZM103.114 16.5567C103.553 16.1507 103.96 15.8383 104.335 15.6091L103.29 13.9036C102.78 14.2158 102.269 14.6141 101.757 15.088L103.114 16.5567ZM104.371 15.5858C105.362 14.9187 106.442 14.5888 107.637 14.5888V12.5888C106.044 12.5888 104.575 13.0373 103.254 13.9269L104.371 15.5858ZM138.791 21.5755L135.476 21.3724L135.354 23.3687L138.669 23.5717L138.791 21.5755ZM134.415 22.3706V29.3756H136.415V22.3706H134.415ZM134.415 29.3756C134.415 30.3404 134.549 31.251 134.992 31.9118L136.654 30.7988C136.552 30.6475 136.415 30.2383 136.415 29.3756H134.415ZM135.024 31.9571C135.603 32.7258 136.532 32.9645 137.455 32.9645V30.9645C136.814 30.9645 136.654 30.797 136.621 30.7535L135.024 31.9571ZM137.455 32.9645C138.258 32.9645 138.803 32.9987 139.127 33.0525L139.454 31.0795C138.963 30.9979 138.284 30.9645 137.455 30.9645V32.9645ZM139.214 33.0631C139.479 33.0833 139.796 33.1775 140.173 33.3921L141.162 31.6536C140.587 31.3267 139.987 31.1163 139.367 31.0689L139.214 33.0631ZM140.177 33.3944C140.292 33.4589 140.459 33.6147 140.602 34.0291C140.748 34.4512 140.841 35.0692 140.841 35.9239H142.841C142.841 34.9511 142.738 34.0886 142.493 33.377C142.245 32.6578 141.825 32.0268 141.158 31.6513L140.177 33.3944ZM140.841 35.9239C140.841 36.9288 140.727 37.6579 140.544 38.1569C140.367 38.6434 140.151 38.8458 139.967 38.9372L140.858 40.7277C141.627 40.3454 142.125 39.6594 142.423 38.8431C142.717 38.0392 142.841 37.0509 142.841 35.9239H140.841ZM139.991 38.9256C139.536 39.137 139.166 39.2541 138.872 39.3028L139.199 41.2759C139.722 41.1892 140.269 41.0017 140.834 40.7394L139.991 38.9256ZM138.946 39.2934C138.618 39.323 138.094 39.3401 137.353 39.3401V41.3401C138.108 41.3401 138.705 41.3233 139.126 41.2853L138.946 39.2934ZM137.353 39.3401C133.95 39.3401 131.537 38.5732 129.95 37.1985L128.64 38.7101C130.725 40.5165 133.684 41.3401 137.353 41.3401V39.3401ZM129.95 37.1985C128.431 35.883 127.541 33.5451 127.541 29.8832H125.541C125.541 33.8018 126.487 36.8446 128.64 38.7101L129.95 37.1985ZM127.541 29.8832V22.3706H125.541V29.8832H127.541ZM126.386 21.3827C125.798 21.4751 125.153 21.5228 124.45 21.5228V23.5228C125.243 23.5228 125.992 23.4691 126.696 23.3584L126.386 21.3827ZM124.45 21.5228C123.997 21.5228 123.638 21.3645 123.312 20.9965L121.815 22.3232C122.509 23.1058 123.407 23.5228 124.45 23.5228V21.5228ZM123.334 21.0224C123.089 20.7262 122.849 20.0456 122.849 18.7157H120.849C120.849 20.1608 121.086 21.443 121.793 22.2974L123.334 21.0224ZM122.849 18.7157C122.849 17.3375 122.937 16.4574 123.068 15.9896L121.141 15.452C120.932 16.2025 120.849 17.319 120.849 18.7157H122.849ZM123.071 15.9764C123.219 15.4155 123.389 15.1804 123.481 15.0992L122.156 13.6013C121.636 14.0615 121.329 14.7401 121.138 15.4652L123.071 15.9764ZM123.447 15.1278C123.784 14.855 124.231 14.6904 124.858 14.6904V12.6904C123.853 12.6904 122.94 12.9656 122.19 13.5727L123.447 15.1278ZM124.738 14.6832L126.421 14.8862L126.661 12.9006L124.978 12.6976L124.738 14.6832ZM127.541 13.8934V8.66498H125.541V13.8934H127.541ZM127.541 8.66498C127.541 7.89191 127.558 7.35453 127.588 7.03004L125.596 6.84813C125.558 7.26815 125.541 7.88136 125.541 8.66498H127.541ZM127.576 7.11878C127.615 6.9052 127.724 6.61687 127.953 6.24668L126.252 5.19495C125.936 5.70462 125.705 6.22847 125.608 6.75939L127.576 7.11878ZM127.988 6.18386C128.043 6.07894 128.208 5.88706 128.723 5.72058C129.238 5.55425 129.992 5.45178 131.029 5.45178V3.45178C129.89 3.45178 128.902 3.56081 128.108 3.81749C127.314 4.07402 126.603 4.51666 126.216 5.25777L127.988 6.18386ZM131.029 5.45178C133.265 5.45178 134.004 6.06108 134.217 6.66281L136.103 5.99709C135.431 4.09459 133.417 3.45178 131.029 3.45178V5.45178ZM134.206 6.62949C134.327 7.01685 134.415 7.75045 134.415 8.91878H136.415C136.415 7.71824 136.332 6.72596 136.114 6.03041L134.206 6.62949ZM134.415 8.91878V13.8934H136.415V8.91878H134.415ZM135.505 14.8893C136.994 14.7546 138.08 14.6904 138.781 14.6904V12.6904C137.986 12.6904 136.827 12.7615 135.325 12.8975L135.505 14.8893ZM138.781 14.6904C139.552 14.6904 140.055 14.725 140.337 14.7759L140.693 12.8079C140.226 12.7234 139.574 12.6904 138.781 12.6904V14.6904ZM140.432 14.7885C140.661 14.8075 140.987 14.9006 141.423 15.132L142.36 13.3655C141.776 13.0554 141.184 12.8439 140.597 12.7953L140.432 14.7885ZM141.446 15.144C141.572 15.2064 141.769 15.3758 141.939 15.8771C142.111 16.3832 142.218 17.1285 142.218 18.1574H144.218C144.218 17.0204 144.103 16.0313 143.833 15.2346C143.561 14.433 143.096 13.7309 142.337 13.3535L141.446 15.144ZM142.218 18.1574C142.218 19.1648 142.107 19.8981 141.93 20.4012C141.756 20.8952 141.547 21.0923 141.382 21.1774L142.299 22.9546C143.052 22.5659 143.532 21.8747 143.816 21.0658C144.098 20.266 144.218 19.2819 144.218 18.1574H142.218ZM141.419 21.1591C140.964 21.3706 140.593 21.4876 140.3 21.5363L140.627 23.5094C141.15 23.4227 141.697 23.2352 142.262 22.9729L141.419 21.1591ZM140.374 21.5269C140.047 21.5565 139.506 21.5736 138.73 21.5736V23.5736C139.517 23.5736 140.132 23.5569 140.554 23.5188L140.374 21.5269ZM147.034 5.467C147.034 4.69392 147.051 4.15655 147.08 3.83207L145.089 3.65016C145.05 4.07019 145.034 4.68341 145.034 5.467H147.034ZM147.071 3.90626C147.12 3.61564 147.237 3.24785 147.449 2.79506L145.638 1.94606C145.374 2.50849 145.186 3.05441 145.098 3.57597L147.071 3.90626ZM147.43 2.83256C147.513 2.67432 147.711 2.46377 148.221 2.28809C148.738 2.10999 149.49 2 150.521 2V0C149.377 0 148.378 0.118439 147.569 0.397186C146.753 0.678358 146.05 1.15309 145.657 1.90855L147.43 2.83256ZM150.521 2C151.497 2 152.214 2.10905 152.712 2.28543C153.202 2.45838 153.42 2.67216 153.524 2.85793L155.27 1.88319C154.864 1.15526 154.182 0.683757 153.379 0.399849C152.586 0.119373 151.62 0 150.521 0V2ZM153.516 2.84285C153.748 3.27623 153.841 3.59854 153.86 3.82455L155.853 3.65769C155.804 3.07152 155.59 2.48012 155.279 1.89826L153.516 2.84285ZM153.87 3.90626C153.924 4.2292 153.958 4.75523 153.958 5.51777H155.958C155.958 4.72361 155.924 4.06522 155.843 3.57597L153.87 3.90626ZM153.958 5.51777V29.0203H155.958V5.51777H153.958ZM153.958 29.0203C153.958 29.652 153.984 30.1988 154.043 30.6477C154.098 31.0652 154.194 31.5172 154.408 31.8716L156.121 30.8391C156.13 30.8551 156.074 30.7487 156.026 30.3878C155.983 30.0584 155.958 29.6069 155.958 29.0203H153.958ZM154.433 31.9118C154.936 32.6623 155.851 32.8122 156.59 32.8122V30.8122C156.315 30.8122 156.155 30.7802 156.074 30.7525C156.002 30.7277 156.046 30.7252 156.095 30.7988L154.433 31.9118ZM156.59 32.8122C156.934 32.8122 157.206 32.8204 157.412 32.835C157.514 32.8423 157.594 32.8508 157.654 32.8593C157.684 32.8635 157.706 32.8675 157.722 32.8707C157.739 32.8739 157.746 32.8759 157.745 32.8756L158.292 30.9518C157.898 30.84 157.284 30.8122 156.59 30.8122V32.8122ZM157.877 32.9037C157.872 32.903 157.907 32.9077 157.989 32.9462C158.07 32.9839 158.177 33.0453 158.313 33.1403L159.457 31.4993C159.069 31.229 158.626 30.9901 158.159 30.9237L157.877 32.9037ZM158.342 33.1594C158.392 33.1921 158.55 33.3347 158.688 33.8231C158.823 34.2996 158.905 34.9884 158.905 35.9239H160.905C160.905 34.8965 160.817 34.0032 160.612 33.2785C160.411 32.5655 160.058 31.8875 159.428 31.4802L158.342 33.1594ZM158.905 35.9239C158.905 36.948 158.822 37.7119 158.682 38.2475C158.537 38.8031 158.368 38.9739 158.313 39.012L159.457 40.653C160.082 40.2173 160.423 39.4998 160.618 38.7525C160.818 37.9852 160.905 37.0317 160.905 35.9239H158.905ZM158.318 39.0091C158.117 39.147 157.61 39.3177 156.593 39.3666C155.618 39.4136 154.321 39.3441 152.682 39.1444L152.44 41.1297C154.134 41.3361 155.556 41.4189 156.689 41.3643C157.781 41.3118 158.769 41.1271 159.453 40.6559L158.318 39.0091ZM152.69 39.1453C150.18 38.8209 148.881 38.0298 148.333 37.0572L146.59 38.0392C147.606 39.8416 149.707 40.7764 152.433 41.1288L152.69 39.1453ZM148.329 37.0503C147.512 35.6267 147.034 33.2064 147.034 29.6294H145.034C145.034 33.2944 145.508 36.1533 146.594 38.0461L148.329 37.0503ZM147.034 29.6294V5.467H145.034V29.6294H147.034ZM163.718 18.0558C163.718 17.2828 163.735 16.7454 163.764 16.4209L161.773 16.239C161.734 16.659 161.718 17.2722 161.718 18.0558H163.718ZM163.755 16.4951C163.803 16.2045 163.921 15.8367 164.133 15.3839L162.322 14.5349C162.058 15.0973 161.87 15.6432 161.782 16.1648L163.755 16.4951ZM164.107 15.4352C164.183 15.2949 164.376 15.0905 164.894 14.9187C165.415 14.7457 166.172 14.6396 167.205 14.6396V12.6396C166.063 12.6396 165.069 12.7534 164.264 13.0204C163.456 13.2886 162.748 13.7441 162.348 14.4836L164.107 15.4352ZM167.205 14.6396C168.775 14.6396 169.627 14.9272 170.027 15.266L171.319 13.7391C170.36 12.9273 168.9 12.6396 167.205 12.6396V14.6396ZM170.039 15.2759C170.33 15.5145 170.564 15.9302 170.592 16.7199L172.591 16.6507C172.55 15.4776 172.172 14.4382 171.307 13.7292L170.039 15.2759ZM170.596 16.7852C170.625 17.0731 170.642 17.524 170.642 18.1574H172.642C172.642 17.5048 172.625 16.9743 172.586 16.5853L170.596 16.7852ZM170.642 18.1574V35.9239H172.642V18.1574H170.642ZM170.642 35.9239C170.642 36.6864 170.608 37.2124 170.554 37.5354L172.526 37.8657C172.608 37.3764 172.642 36.718 172.642 35.9239H170.642ZM170.544 37.6096C170.527 37.796 170.439 38.1013 170.2 38.548L171.963 39.4926C172.267 38.9241 172.485 38.3495 172.536 37.7915L170.544 37.6096ZM170.188 38.5714C170.126 38.6945 169.956 38.8921 169.449 39.0623C168.939 39.2337 168.189 39.3401 167.154 39.3401V41.3401C168.296 41.3401 169.288 41.2265 170.087 40.958C170.889 40.6883 171.595 40.226 171.975 39.4692L170.188 38.5714ZM167.154 39.3401C166.141 39.3401 165.403 39.2303 164.896 39.0533C164.397 38.8792 164.199 38.6699 164.114 38.5075L162.341 39.4315C162.732 40.1829 163.427 40.6589 164.237 40.9416C165.038 41.2214 166.025 41.3401 167.154 41.3401V39.3401ZM164.133 38.545C163.916 38.0817 163.799 37.7276 163.752 37.4701L161.785 37.8294C161.874 38.3164 162.063 38.8421 162.322 39.394L164.133 38.545ZM163.764 37.5588C163.735 37.235 163.718 36.6816 163.718 35.8731H161.718C161.718 36.689 161.734 37.32 161.773 37.7407L163.764 37.5588ZM163.718 35.8731V18.0558H161.718V35.8731H163.718ZM170.188 8.2161C170.102 8.38561 169.919 8.5806 169.455 8.72622L170.055 10.6342C170.884 10.3737 171.584 9.89189 171.975 9.11386L170.188 8.2161ZM169.455 8.72622C168.947 8.88601 168.194 8.98477 167.154 8.98477V10.9848C168.29 10.9848 169.272 10.8805 170.055 10.6342L169.455 8.72622ZM167.154 8.98477C166.152 8.98477 165.415 8.88673 164.904 8.72622L164.305 10.6342C165.086 10.8798 166.049 10.9848 167.154 10.9848V8.98477ZM164.904 8.72622C164.461 8.58676 164.236 8.37903 164.109 8.14192L162.346 9.08651C162.763 9.86463 163.456 10.3676 164.305 10.6342L164.904 8.72622ZM164.133 8.18971C163.916 7.7264 163.799 7.3723 163.752 7.11472L161.785 7.47411C161.874 7.96103 162.063 8.4868 162.322 9.03872L164.133 8.18971ZM163.765 7.21099C163.735 6.84731 163.718 6.28843 163.718 5.51777H161.718C161.718 6.30378 161.734 6.92934 161.772 7.37785L163.765 7.21099ZM163.718 5.51777C163.718 4.74468 163.735 4.20731 163.764 3.88283L161.773 3.70092C161.734 4.12095 161.718 4.73417 161.718 5.51777H163.718ZM163.755 3.95702C163.802 3.67328 163.916 3.32964 164.121 2.92096L162.334 2.0232C162.063 2.56206 161.871 3.09829 161.782 3.62673L163.755 3.95702ZM164.114 2.93409C164.197 2.77584 164.395 2.5653 164.905 2.38962C165.422 2.21151 166.174 2.10152 167.205 2.10152V0.101521C166.061 0.101521 165.062 0.21996 164.253 0.498707C163.437 0.779879 162.734 1.25461 162.341 2.01007L164.114 2.93409ZM167.205 2.10152C168.219 2.10152 168.951 2.21151 169.447 2.38695C169.934 2.55912 170.11 2.76132 170.181 2.90754L171.981 2.03663C171.61 1.26913 170.919 0.786054 170.114 0.50137C169.318 0.219957 168.333 0.101521 167.205 0.101521V2.10152ZM170.2 2.94437C170.432 3.37775 170.525 3.70006 170.544 3.92607L172.537 3.75921C172.488 3.17304 172.274 2.58164 171.963 1.99979L170.2 2.94437ZM170.556 4.02233C170.607 4.3012 170.642 4.80131 170.642 5.56853H172.642C172.642 4.77906 172.609 4.12858 172.524 3.66295L170.556 4.02233ZM170.642 5.56853C170.642 6.33106 170.608 6.85709 170.554 7.18004L172.526 7.51032C172.608 7.02108 172.642 6.36268 172.642 5.56853H170.642ZM170.544 7.25422C170.527 7.44069 170.439 7.74593 170.2 8.19268L171.963 9.13727C172.267 8.56879 172.485 7.99417 172.536 7.43613L170.544 7.25422ZM175.951 26.9898C175.951 23.1939 177.273 20.1145 179.914 17.6735L178.556 16.2047C175.485 19.0428 173.951 22.664 173.951 26.9898H175.951ZM179.914 17.6735C182.597 15.1936 185.622 13.9797 189.027 13.9797V11.9797C185.087 11.9797 181.585 13.4054 178.556 16.2047L179.914 17.6735ZM189.027 13.9797C192.43 13.9797 195.437 15.1931 198.084 17.6694L199.45 16.2088C196.454 13.4059 192.966 11.9797 189.027 11.9797V13.9797ZM198.089 17.6738C200.693 20.0784 202 23.1392 202 26.9391H204C204 22.6171 202.485 19.0113 199.446 16.2044L198.089 17.6738ZM202 26.9391C202 29.5641 201.32 31.8732 199.974 33.8983L201.64 35.0053C203.218 32.631 204 29.9317 204 26.9391H202ZM199.978 33.8923C198.602 35.931 196.944 37.4149 195.007 38.3789L195.898 40.1694C198.177 39.0351 200.088 37.3041 201.636 35.0113L199.978 33.8923ZM195.013 38.3759C193.071 39.3262 191.063 39.797 188.976 39.797V41.797C191.376 41.797 193.685 41.2525 195.892 40.1723L195.013 38.3759ZM188.976 39.797C186.9 39.797 184.879 39.2976 182.905 38.2831L181.991 40.0621C184.232 41.2134 186.564 41.797 188.976 41.797V39.797ZM182.916 38.2889C180.963 37.2541 179.296 35.7441 177.918 33.734L176.268 34.865C177.814 37.1189 179.717 38.8576 181.98 40.0562L182.916 38.2889ZM177.928 33.7491C176.612 31.754 175.951 29.5104 175.951 26.9898H173.951C173.951 29.8838 174.718 32.5134 176.258 34.8499L177.928 33.7491ZM185.011 31.446C186.235 32.3594 187.545 32.8629 188.925 32.8629V30.8629C188.06 30.8629 187.16 30.5543 186.208 29.8433L185.011 31.446ZM188.925 32.8629C190.314 32.8629 191.642 32.3357 192.892 31.3923L191.688 29.7955C190.695 30.5442 189.779 30.8629 188.925 30.8629V32.8629ZM192.892 31.3923C194.312 30.322 194.973 28.7458 194.973 26.8376H192.973C192.973 28.2457 192.513 29.1738 191.688 29.7955L192.892 31.3923ZM194.973 26.8376C194.973 24.9536 194.362 23.3875 193.003 22.3399L191.782 23.9241C192.53 24.5008 192.973 25.4051 192.973 26.8376H194.973ZM193.003 22.3399C191.79 21.4054 190.44 20.9137 188.976 20.9137V22.9137C189.959 22.9137 190.887 23.2342 191.782 23.9241L193.003 22.3399ZM188.976 20.9137C187.5 20.9137 186.145 21.4302 184.933 22.4029L186.185 23.9626C187.081 23.2433 188.003 22.9137 188.976 22.9137V20.9137ZM184.933 22.4029C183.589 23.4816 182.978 25.0535 182.978 26.9391H184.978C184.978 25.5082 185.421 24.5759 186.185 23.9626L184.933 22.4029ZM182.978 26.9391C182.978 28.8102 183.619 30.3636 184.996 31.4341L186.224 29.8553C185.424 29.2337 184.978 28.3167 184.978 26.9391H182.978Z" fill="white" fill-opacity="0.25" mask="url(#path-1-outside-1_102_9)"/>
</g>
<defs>
<filter id="filter0_d_102_9" x="0" y="0" width="206" height="46" filterUnits="userSpaceOnUse" color-interpolation-filters="sRGB">
<feFlood flood-opacity="0" result="BackgroundImageFix"/>
<feColorMatrix in="SourceAlpha" type="matrix" values="0 0 0 0 0 0 0 0 0 0 0 0 0 0 0 0 0 0 127 0" result="hardAlpha"/>
<feOffset dy="2"/>
<feGaussianBlur stdDeviation="1"/>
<feComposite in2="hardAlpha" operator="out"/>
<feColorMatrix type="matrix" values="0 0 0 0 0 0 0 0 0 0 0 0 0 0 0 0 0 0 0.25 0"/>
<feBlend mode="normal" in2="BackgroundImageFix" result="effect1_dropShadow_102_9"/>
<feBlend mode="normal" in="SourceGraphic" in2="effect1_dropShadow_102_9" result="shape"/>
</filter>
</defs>
</svg>
